<svg width="20" height="19" viewBox="0 0 20 19" fill="none" xmlns="http://www.w3.org/2000/svg">
<path fill-rule="evenodd" clip-rule="evenodd" d="M19.0058 7.59651H18.2104C17.8145 3.29298 14.2047 1.20836e-06 9.88302 1.20836e-06C5.56132 1.20836e-06 1.95151 3.29298 1.55563 7.59651H0.760233C0.340368 7.59651 0 7.93688 0 8.35674C0.00680788 12.0415 2.05624 15.4187 5.32163 17.126V17.4795C5.32163 18.3193 6.00236 19 6.84209 19H12.924C13.7637 19 14.4444 18.3193 14.4444 17.4795V17.126C17.7098 15.4187 19.7592 12.0415 19.766 8.35674C19.766 7.93688 19.4257 7.59651 19.0058 7.59651ZM16.6814 7.59651H11.795C12.7167 6.21373 14.1111 5.21462 15.7169 4.7865C16.2419 5.64048 16.5713 6.60012 16.6814 7.59651ZM14.2049 3.05697C14.3792 3.19952 14.5461 3.34998 14.7057 3.50836C12.682 4.22027 11.0096 5.68339 10.0351 7.59461H7.23171C8.20524 4.86571 10.7868 3.04148 13.6842 3.03511C13.8581 3.03511 14.032 3.04367 14.2049 3.05697ZM9.88302 1.51465C10.4931 1.51505 11.1003 1.59719 11.6886 1.75887C8.77264 2.48221 6.46534 4.70834 5.63808 7.59651H3.08464C3.47505 4.1357 6.40026 1.51879 9.88302 1.51465ZM13.3668 15.9591C13.096 16.0835 12.9228 16.3547 12.924 16.6528V17.4795H6.84209V16.6528C6.84323 16.3547 6.67009 16.0835 6.39926 15.9591C3.67827 14.707 1.83115 12.0993 1.55278 9.11698H18.2104C17.9326 12.0986 16.0867 14.7062 13.3668 15.9591Z" fill="#1C120D"/>
</svg>
