<svg width="24" height="16" viewBox="0 0 24 16" fill="none" xmlns="http://www.w3.org/2000/svg">
<path fill-rule="evenodd" clip-rule="evenodd" d="M10.9776 10.4874C13.0775 9.08939 14.0145 6.48127 13.2842 4.06652C12.5539 1.65178 10.3287 -2.42586e-05 7.80591 -2.42586e-05C5.28315 -2.42586e-05 3.05792 1.65178 2.32764 4.06652C1.59735 6.48127 2.53428 9.08939 4.63424 10.4874C2.78417 11.1693 1.20416 12.4311 0.129984 14.0845C-0.0236608 14.3129 -0.0424309 14.6063 0.080863 14.8524C0.204157 15.0984 0.450408 15.2591 0.725305 15.2727C1.0002 15.2863 1.26114 15.1509 1.40819 14.9182C2.81595 12.753 5.22331 11.4468 7.80591 11.4468C10.3885 11.4468 12.7959 12.753 14.2036 14.9182C14.4365 15.2644 14.9042 15.3593 15.2537 15.1314C15.6031 14.9035 15.7047 14.4372 15.4818 14.0845C14.4077 12.4311 12.8277 11.1693 10.9776 10.4874ZM3.60881 5.72562C3.60881 3.40762 5.48792 1.52852 7.80591 1.52852C10.1239 1.52852 12.003 3.40762 12.003 5.72562C12.003 8.04361 10.1239 9.92272 7.80591 9.92272C5.48901 9.92009 3.61144 8.04252 3.60881 5.72562ZM23.6538 15.1405C23.3008 15.3707 22.8281 15.2712 22.5978 14.9182C21.1917 12.7516 18.7831 11.4455 16.2001 11.4489C15.7787 11.4489 15.437 11.1073 15.437 10.6858C15.437 10.2644 15.7787 9.92272 16.2001 9.92272C17.8905 9.92112 19.4149 8.90566 20.0677 7.34644C20.7204 5.78722 20.3741 3.98857 19.1891 2.78319C18.0041 1.5778 16.2116 1.20094 14.6415 1.82708C14.3866 1.93725 14.092 1.90031 13.8723 1.73063C13.6525 1.56095 13.5423 1.2853 13.5844 1.01087C13.6265 0.736445 13.8143 0.506541 14.0749 0.410561C16.7962 -0.674766 19.8978 0.470345 21.2611 3.06372C22.6243 5.65709 21.8089 8.86119 19.3718 10.4874C21.2219 11.1693 22.8019 12.4311 23.876 14.0845C24.1062 14.4375 24.0067 14.9102 23.6538 15.1405Z" fill="#1C120D"/>
</svg>
