<svg width="19" height="23" viewBox="0 0 19 23" fill="none" xmlns="http://www.w3.org/2000/svg">
<path fill-rule="evenodd" clip-rule="evenodd" d="M18.4669 6.674L16.5523 7.29526L17.7336 8.9226C17.9036 9.14342 17.9401 9.43914 17.8291 9.69473C17.7181 9.95032 17.4771 10.1254 17.1997 10.152C16.9223 10.1785 16.6524 10.0523 16.4949 9.82242L15.3165 8.19508L14.1353 9.82242C13.8823 10.151 13.4138 10.2186 13.0783 9.97493C12.7428 9.73121 12.6622 9.26472 12.8966 8.9226L14.0778 7.29526L12.1633 6.674C11.761 6.54341 11.5407 6.11141 11.6713 5.70908C11.8019 5.30676 12.2339 5.08647 12.6362 5.21705L14.5507 5.83927V3.82903C14.5507 3.40609 14.8936 3.06322 15.3165 3.06322C15.7395 3.06322 16.0823 3.40609 16.0823 3.82903V5.83927L17.9968 5.21801C18.3992 5.08716 18.8314 5.30724 18.9622 5.70956C19.0931 6.11189 18.873 6.54411 18.4707 6.67496L18.4669 6.674ZM9.19008 16.8477C9.18927 18.4394 7.9696 19.7653 6.38353 19.8986C4.79745 20.032 3.37349 18.9284 3.1069 17.3593C2.84031 15.7901 3.81991 14.2781 5.36105 13.8802V10.7213C5.36105 10.2983 5.70391 9.95548 6.12685 9.95548C6.54979 9.95548 6.89266 10.2983 6.89266 10.7213V13.8802C8.24451 14.2314 9.18876 15.451 9.19008 16.8477ZM7.65846 16.8477C7.65846 16.0018 6.97274 15.3161 6.12685 15.3161C5.28097 15.3161 4.59524 16.0018 4.59524 16.8477C4.59524 17.6936 5.28097 18.3793 6.12685 18.3793C6.97274 18.3793 7.65846 17.6936 7.65846 16.8477ZM12.2533 16.8477C12.2515 19.7041 10.2761 22.1802 7.49147 22.8164C4.70687 23.4527 1.8521 22.0802 0.609991 19.508C-0.632118 16.9359 0.0680774 13.8467 2.29782 12.0614V3.82903C2.29782 1.71431 4.01214 0 6.12685 0C8.24157 0 9.95588 1.71431 9.95588 3.82903V12.0614C11.4082 13.2257 12.2533 14.9864 12.2533 16.8477ZM10.7217 16.8477C10.7205 15.3442 9.98495 13.9361 8.75165 13.0761C8.54537 12.9321 8.42299 12.6959 8.42427 12.4443V3.82903C8.42427 2.5602 7.39568 1.53161 6.12685 1.53161C4.85802 1.53161 3.82943 2.5602 3.82943 3.82903V12.4443C3.82946 12.6946 3.70722 12.929 3.50205 13.0723C1.71223 14.318 1.04451 16.6501 1.90383 18.6543C2.76315 20.6585 4.91281 21.7826 7.04908 21.345C9.18535 20.9073 10.7197 19.0284 10.7217 16.8477Z" fill="#1C120D"/>
</svg>
